<?xml version="1.0" standalone="no"?><!DOCTYPE svg PUBLIC "-//W3C//DTD SVG 1.1//EN" "http://www.w3.org/Graphics/SVG/1.1/DTD/svg11.dtd"><svg t="1775788646612" class="icon" viewBox="0 0 1024 1024" version="1.1" xmlns="http://www.w3.org/2000/svg" p-id="26718" xmlns:xlink="http://www.w3.org/1999/xlink" width="200" height="200"><path d="M623.033985 685.76306c-18.588184-32.091064 41.687402 69.8417 80.605468 106.266229 113.047894 105.824193 192.062787-15.561937 156.548778-139.947867 234.411355-120.800526 88.807693-222.672841 88.807692-222.672841-48.722199-7.514613-159.374786-16.189099-243.391865-15.43726a1490.549435 1490.549435 0 0 0 139.162025-87.398466c126.342979-89.495305 23.435468-191.348729-105.476609-181.612601C668.204783-109.093371 505.913315 48.13924 505.913315 48.13924c-24.99204 67.378388-45.635502 228.067948-41.211364 290.217465-22.585399-38.766942-65.428896-107.006734-127.045702-182.704467C239.905826 35.569548 145.268546 145.179383 163.694272 273.214944c-248.548953 88.104969-73.695348 219.793939-73.695348 219.793939 60.490937 17.945909 176.980667 40.315957 256.996754 42.356124-38.003768 26.159468-99.57146 71.768524-166.598487 134.378968-113.149902 105.71085 2.561542 192.784402 128.972527 165.740861 104.630318 242.167765 230.006106 64.125456 230.006106 64.125456 6.887451-30.798958 19.702719-78.962 30.34181-129.414563 5.315767-25.245172 10.102602-51.041944 13.351756-75.54661 23.223896 66.233628 61.47324 147.553154-24.568894 329.335769l133.853814-100.466867c0.003778 0-4.771723-126.32031-69.320325-237.754961z" fill="" p-id="26719"></path></svg>