<?xml version="1.0" standalone="no"?><!DOCTYPE svg PUBLIC "-//W3C//DTD SVG 1.1//EN" "http://www.w3.org/Graphics/SVG/1.1/DTD/svg11.dtd"><svg t="1775788555145" class="icon" viewBox="0 0 1024 1024" version="1.1" xmlns="http://www.w3.org/2000/svg" p-id="19490" xmlns:xlink="http://www.w3.org/1999/xlink" width="200" height="200"><path d="M345.689095 31.678268c102.162413 0 204.324826 49.101315 267.681361 129.880897 40.389791-31.678268 81.571539-62.564578 129.088941-83.947409 33.262181-14.25522 69.692189-23.758701 106.122196-23.758701 15.047177 0 30.094354 1.583913 44.349575 4.75174 11.87935 2.37587 22.966744 6.335654 34.054137 11.87935-37.221964 15.047177-78.403712 12.671307-117.20959 22.174788-52.269142 14.25522-96.618716 57.020882-118.793503 106.122196 23.758701-4.75174 48.309358-7.919567 72.860015-7.919567 33.262181 0 65.732405 5.543697 95.82676 18.215004 52.269142 22.966744 95.826759 72.068059 100.578499 128.296984-32.470224-20.590874-64.940449-40.389791-98.202629-60.980665-7.919567-4.75174-15.839134-10.295437-24.550657-12.671307-8.711524-2.37587-17.423047-3.167827-26.134571-3.167827-8.711524-0.791957-18.215004-0.791957-26.926528-0.791957-27.718484 0-55.436968 3.959783-77.611755 19.798918 63.356535 49.101315 92.658933 137.008507 71.276102 213.828306-11.087394-31.678268-22.174787-64.148492-38.805878-93.45089-16.63109-29.302398-39.597834-56.228925-68.900232-72.068058l-8.711524-0.791957c-45.933488 222.53983-31.678268 451.415313 38.805878 664.451663H591.987626c-54.645012-221.747873-53.061098-451.415313 3.167826-669.203403l-9.50348-0.791957C554.765661 355.588554 456.563032 512.395978 456.563032 512.395978c-1.583913-60.188708-9.50348-81.571539 14.25522-137.008507 14.25522-33.262181 38.013921-63.356535 46.725445-98.20263-41.973705 6.335654-106.914153 28.510441-125.129157 36.430008-48.309358 21.382831-96.618716 42.765661-143.344161 67.316319 19.006961-32.470224 41.181748-62.564578 66.524362-91.07502 31.678268-34.846094 69.692189-66.524362 115.625677-78.403712 15.047177-3.959783 30.094354-5.543697 45.933488-5.543697 27.718484 0 56.228925 4.75174 83.155452 11.087394-10.295437-59.396752-63.356535-100.5785-115.625677-130.672854-36.430008-21.382831-74.443929-39.597834-113.249806-55.436968 4.75174 0.791957 9.50348 0.791957 14.25522 0.791957m0.791957-31.678268h-15.839134c-15.047177 0.791957-26.926527 11.87935-30.094354 26.134571-2.37587 15.047177 5.543697 30.094354 19.798917 35.638051 37.221964 15.047177 74.443929 33.262181 109.290023 53.061098 35.638051 20.590874 60.980665 41.181748 77.611756 62.564579-10.295437-0.791957-19.798917-1.583913-30.094354-1.583914-19.006961 0-36.430008 2.37587-53.853055 6.335654-45.141531 11.87935-87.907193 40.389791-131.464811 87.907192-26.926527 29.302398-49.893271 61.772622-70.484145 95.82676-6.335654 11.87935-4.75174 27.718484 5.543697 38.013921 6.335654 6.335654 14.25522 9.50348 22.966744 9.50348 4.75174 0 10.295437-1.583913 15.047177-3.959783 45.141531-24.550657 94.242846-45.933488 140.968291-66.524362 9.50348-3.959783 32.470224-12.671307 57.020881-19.798918-7.12761 12.671307-14.25522 25.342614-20.590874 39.597835-22.174787 51.477185-20.590874 79.987626-19.00696 118.793503 0.791957 9.50348 0.791957 19.798917 1.583913 31.678268 0 14.25522 9.50348 26.134571 22.966744 30.094354 3.167827 0.791957 5.543697 0.791957 8.711524 0.791957 11.087394 0 20.590874-5.543697 26.926527-15.047177 15.839134-24.550657 35.638051-56.228925 54.645012-85.531323-29.302398 184.525909-21.382831 374.595514 23.7587 556.745553 3.167827 14.25522 15.839134 23.758701 30.886311 23.758701h107.70611c10.295437 0 19.798917-4.75174 25.342614-13.463264 6.335654-7.919567 7.919567-19.006961 4.75174-28.510441-64.940449-192.445476-80.779582-399.938128-46.725444-601.887084 10.295437 10.295437 19.006961 22.966744 27.718484 37.221965 15.047177 26.926527 26.134571 57.812838 36.430008 87.907192 4.75174 12.671307 16.63109 21.382831 30.094354 21.382831h0.791956c14.25522-0.791957 26.134571-10.295437 29.302398-22.966744 19.798917-72.068059 1.583913-152.055684-44.349575-209.868523 6.335654-0.791957 12.671307-0.791957 19.798918-0.791957 8.711524 0 17.423047 0 25.342614 0.791957 7.12761 0 14.25522 0.791957 19.00696 2.37587 4.75174 1.583913 11.087394 5.543697 17.423047 9.50348l98.20263 60.980665c4.75174 3.167827 11.087394 4.75174 16.63109 4.751741 5.543697 0 11.087394-1.583913 16.631091-4.751741 10.295437-6.335654 15.839134-17.423047 15.047177-29.302397-4.75174-65.732405-52.269142-125.921114-119.58546-155.223511-32.470224-14.25522-68.900232-20.590874-108.498067-20.590874H757.506574c18.215004-17.423047 39.597834-30.886311 60.980665-36.430008 14.25522-3.959783 29.302398-5.543697 45.933488-7.919567 24.550657-3.167827 49.893271-6.335654 74.443929-15.839134 11.87935-4.75174 19.798917-15.839134 19.798917-27.718484 0.791957-12.671307-6.335654-23.758701-17.423047-30.094354-12.671307-6.335654-26.134571-11.087394-41.181748-15.047177-16.63109-3.959783-34.054138-5.543697-51.477185-5.543697-38.013921 0-79.195669 9.50348-118.793503 26.926527-41.973705 18.215004-79.195669 44.349575-111.665894 68.900232-69.692189-74.443929-171.062645-118.793503-271.641144-118.793503z" fill="#303C42" p-id="19491"></path><path d="M361.528229 472.006187c-17.423047 13.463264-34.054138 28.510441-49.893272 45.141531-22.174787 22.966744-42.765661 52.269142-39.597834 83.155453 20.590874-11.087394 41.973705-21.382831 64.940449-22.174787h2.37587c23.758701 0 47.517401 10.295437 68.108275 22.966744 16.63109 10.295437 32.470224 22.966744 46.725445 36.430007-27.718484-5.543697-55.436968-9.50348-83.155453-13.463263-7.12761-0.791957-15.047177-1.583913-22.174787-1.583914-3.167827 0-6.335654 0-9.50348 0.791957-7.919567 0.791957-16.63109 3.959783-25.342614 3.959783-3.959783 0-7.919567-0.791957-11.879351-3.167826 9.50348 16.63109 26.134571 28.510441 38.805878 42.765661 20.590874 24.550657 29.302398 57.020882 37.221964 87.907192l-49.101314-50.685228c-16.63109-17.423047-33.262181-34.846094-54.645012-46.725444l-4.75174 1.583913c59.396752 99.786543 93.450889 213.03635 99.786543 331.037896h-53.853055c0-110.08198-26.926527-220.16396-78.403712-319.158546l-3.959784 1.583914c-12.671307 12.671307-20.590874 29.302398-24.550657 46.725444s-4.75174 35.638051-6.335654 53.061099c-22.174787-35.638051-19.798917-85.531323 4.75174-119.585461-5.543697-2.37587-11.087394-3.167827-16.63109-3.167826-12.671307 0-26.134571 3.959783-38.805878 8.711523-4.75174 1.583913-8.711524 3.167827-12.671307 5.543697-3.959783 2.37587-7.12761 6.335654-11.087394 10.295437l-40.389791 45.141531c-6.335654-29.302398 8.711524-60.980665 31.678268-79.987625 23.758701-19.006961 53.853055-27.718484 83.947409-30.094354-18.215004-21.382831-46.725445-36.430008-74.443929-36.430008h-1.583913c-19.006961 0.791957-37.221964 6.335654-55.436969 6.335653h-7.12761c4.75174-4.75174 10.295437-7.919567 15.839134-11.087393 17.423047-9.50348 38.013921-14.25522 57.812838-14.255221 7.12761 0 14.25522 0.791957 21.382831 1.583914 26.926527 3.959783 53.061098 13.463264 77.611756 23.7587C258.573859 526.651199 306.091261 485.469451 361.528229 472.006187m0-31.678267c-2.37587 0-4.75174 0-7.12761 0.791956-54.645012 13.463264-102.95437 49.893271-132.256767 98.20263-18.215004-6.335654-37.221964-11.87935-58.604796-15.047177-8.711524-0.791957-16.63109-1.583913-25.342614-1.583914-27.718484 0-52.269142 6.335654-73.651972 18.215004-7.919567 4.75174-15.839134 9.50348-21.38283 15.839134-8.711524 8.711524-12.671307 21.382831-8.711524 33.262181s14.25522 19.798917 26.926527 21.382831c3.167827 0 7.12761 0.791957 10.295437 0.791956 11.87935 0 23.758701-1.583913 34.054138-3.167826 1.583913 0 3.959783-0.791957 5.543697-0.791957-3.959783 2.37587-7.919567 5.543697-11.87935 8.711523-34.054138 28.510441-50.685228 72.068059-42.765662 110.873937 2.37587 11.87935 11.087394 21.382831 22.966744 24.550657 2.37587 0.791957 5.543697 0.791957 7.919567 0.791957 8.711524 0 17.423047-3.959783 23.758701-10.295437l20.590874-22.966744 20.590874-22.966744 4.75174-4.75174s0.791957-0.791957 2.37587-0.791957c-6.335654 33.262181-0.791957 69.692189 17.423047 98.994586 5.543697 9.50348 15.839134 15.047177 26.926528 15.047178 2.37587 0 5.543697 0 7.919567-0.791957 13.463264-3.167827 22.966744-15.047177 23.7587-29.302398 0.791957-10.295437 0.791957-20.590874 2.37587-30.094354 31.678268 77.611756 48.309358 161.559165 47.517402 245.506574 0 8.711524 3.167827 16.63109 9.50348 22.174787 6.335654 6.335654 14.25522 9.50348 22.174787 9.503481h53.853055c8.711524 0 16.63109-3.959783 22.966744-9.503481 6.335654-6.335654 9.50348-15.047177 8.711524-23.7587-3.959783-70.484145-17.423047-140.176334-40.389791-206.700696 4.75174 3.167827 11.087394 4.75174 16.63109 4.75174 5.543697 0 10.295437-1.583913 15.839134-3.959784 12.671307-7.12761 19.006961-21.382831 15.047177-35.638051-7.12761-27.718484-15.839134-61.772622-36.430008-90.283062 25.342614 3.167827 50.685228 7.12761 75.235886 11.87935 2.37587 0.791957 4.75174 0.791957 6.335653 0.791957 11.87935 0 22.174787-6.335654 27.718484-16.631091 6.335654-12.671307 3.959783-27.718484-6.335653-38.013921-15.839134-15.047177-33.262181-28.510441-52.269142-40.389791-30.094354-18.215004-57.812838-27.718484-83.947409-27.718484h-3.959783c-3.167827 0-6.335654 0-9.50348 0.791956 2.37587-3.167827 4.75174-5.543697 7.919566-8.711523 14.25522-15.047177 30.094354-29.302398 45.933488-41.973705 11.87935-9.50348 15.839134-25.342614 8.711524-38.805878-4.75174-11.87935-15.839134-18.215004-27.718484-18.215003z" fill="#303C42" p-id="19492"></path><path d="M819.279196 1021.62413h-657.324053c-8.711524 0-15.839134-7.12761-15.839134-15.839134s7.12761-15.839134 15.839134-15.839134h657.324053c8.711524 0 15.839134 7.12761 15.839133 15.839134s-7.12761 15.839134-15.839133 15.839134z" fill="#303C42" p-id="19493"></path></svg>