<?xml version="1.0" standalone="no"?><!DOCTYPE svg PUBLIC "-//W3C//DTD SVG 1.1//EN" "http://www.w3.org/Graphics/SVG/1.1/DTD/svg11.dtd"><svg t="1775803213303" class="icon" viewBox="0 0 1024 1024" version="1.1" xmlns="http://www.w3.org/2000/svg" p-id="37069" xmlns:xlink="http://www.w3.org/1999/xlink" width="200" height="200"><path d="M548.2 93l98.4 199.4c6.2 12.5 18.1 21.2 32 23.2l220 32c34.8 5.1 48.7 47.9 23.5 72.4L762.9 575.2c-10 9.8-14.6 23.8-12.2 37.6l37.6 219.1c5.9 34.7-30.5 61.1-61.6 44.8L529.9 773.2c-12.4-6.5-27.2-6.5-39.5 0L293.5 876.7c-31.2 16.4-67.6-10.1-61.6-44.8l37.6-219.1c2.4-13.8-2.2-27.8-12.2-37.6L98.1 420c-25.2-24.6-11.3-67.4 23.5-72.4l220-32c13.8-2 25.8-10.7 32-23.2L472 93c15.6-31.6 60.6-31.6 76.2 0z" p-id="37070"></path></svg>